# xmcd
#
# Track frame offsets:
#	150
#	10895
#	20467
#	30930
#	43564
#	55890
#	65560
#	76147
#	87450
#	98635
#	108887
#	121047
#	131630
#	141297
#	151725
#	162017
#	173977
#	184195
#	193507
#	206170
#
# Disc length: 2890 seconds
#
# Revision: 3
# Processed by: cddbd v1.5.2PL0 Copyright (c) Steve Scherf et al.
# Submitted via: audiograbber 1.83.01
#
DISCID=fc0b4814
DTITLE=Major Lance - Everybody Loves A Good Time - The Best Of  [CD1)
DYEAR=1900
DGENRE=Oldies
TTITLE0=Delilah
TTITLE1=Everytime
TTITLE2=Please Don't Say No More
TTITLE3=The Monkey Time
TTITLE4=Mama Didn't Know
TTITLE5=Keep On Loving You
TTITLE6=Um, Um, Um, Um, Um, Um
TTITLE7=Hey Little Girl
TTITLE8=Crying In The Rain
TTITLE9=Little Young Lover
TTITLE10=You'll Want Me Back
TTITLE11=Gonna Get Married
TTITLE12=I'm The One
TTITLE13=Gotta Right To Cry
TTITLE14=Think Nothing About It
TTITLE15=That's What Mama Say
TTITLE16=Little Miss Love
TTITLE17=Play A Song For Me
TTITLE18=It Ain't No Use
TTITLE19=Gotta Get Away
EXTD=
EXTT0=
EXTT1=
EXTT2=
EXTT3=
EXTT4=
EXTT5=
EXTT6=
EXTT7=
EXTT8=
EXTT9=
EXTT10=
EXTT11=
EXTT12=
EXTT13=
EXTT14=
EXTT15=
EXTT16=
EXTT17=
EXTT18=
EXTT19=
PLAYORDER=
